<svg xmlns="http://www.w3.org/2000/svg" xmlns:xlink="http://www.w3.org/1999/xlink" width="272" zoomAndPan="magnify" viewBox="0 0 204 101.249998" height="135" preserveAspectRatio="xMidYMid meet" version="1.0"><defs><g/></defs><g fill="#ffffff" fill-opacity="1"><g transform="translate(47.094978, 82.672306)"><g><path d="M 19.496094 -2.976562 C 30.683594 -5.222656 37.871094 -11.9375 35.949219 -21.519531 C 34.316406 -29.648438 26.574219 -33.0625 17.621094 -35.535156 C 9.746094 -37.679688 2.390625 -40.507812 1.320312 -45.839844 C 0.257812 -51.136719 4.007812 -56.621094 10.085938 -57.839844 C 16.203125 -59.066406 21.421875 -58.367188 26.964844 -55.871094 L 27.339844 -56.722656 C 22.289062 -59.082031 16.402344 -59.996094 10.511719 -58.816406 C -0.378906 -56.632812 -6.109375 -49.820312 -4.457031 -41.578125 C -2.949219 -34.046875 5.765625 -30.636719 14.128906 -28.199219 C 21.503906 -26.035156 28.824219 -23.390625 30.058594 -17.238281 C 31.367188 -10.710938 27.378906 -5.449219 19.398438 -3.851562 C 12.910156 -2.550781 5.898438 -4.054688 0.871094 -6.109375 L 0.570312 -5.273438 C 5.53125 -3.359375 12.671875 -1.609375 19.496094 -2.976562 Z M 19.496094 -2.976562 "/></g></g></g><g fill="#eeba2b" fill-opacity="1"><g transform="translate(16.880008, 83.297373)"><g><path d="M 19.445312 -3.296875 C 30.59375 -5.722656 37.667969 -12.554688 35.589844 -22.105469 C 33.828125 -30.207031 26.03125 -33.492188 17.039062 -35.816406 C 9.128906 -37.832031 1.726562 -40.542969 0.570312 -45.855469 C -0.578125 -51.132812 3.082031 -56.679688 9.136719 -57.996094 C 15.234375 -59.324219 20.464844 -58.710938 26.046875 -56.304688 L 26.40625 -57.160156 C 21.316406 -59.441406 15.417969 -60.257812 9.546875 -58.980469 C -1.304688 -56.621094 -6.925781 -49.714844 -5.136719 -41.5 C -3.503906 -33.996094 5.261719 -30.726562 13.664062 -28.429688 C 21.078125 -26.382812 28.4375 -23.859375 29.769531 -17.726562 C 31.1875 -11.222656 27.285156 -5.898438 19.332031 -4.167969 C 12.867188 -2.761719 5.832031 -4.148438 0.769531 -6.121094 L 0.484375 -5.28125 C 5.476562 -3.449219 12.644531 -1.816406 19.445312 -3.296875 Z M 19.445312 -3.296875 "/></g></g></g><g fill="#ffffff" fill-opacity="1"><g transform="translate(79.56484, 79.254168)"><g><path d="M 16.011719 0.914062 C 21.183594 0.914062 25.101562 -1.671875 27.34375 -4.375 L 27.003906 -4.792969 C 25.101562 -3.347656 23.277344 -2.015625 19.929688 -2.015625 C 16.390625 -2.015625 14.414062 -4.375 14.414062 -8.785156 L 14.414062 -37.308594 L 26.242188 -37.308594 L 26.242188 -38.183594 L 14.375 -38.183594 L 14.375 -46.816406 L 12.96875 -47.160156 L 6.65625 -38.183594 L 1.710938 -38.183594 L 1.710938 -37.308594 L 6.730469 -37.308594 L 6.730469 -9.050781 C 6.730469 -2.472656 10.574219 0.914062 16.011719 0.914062 Z M 16.011719 0.914062 "/></g></g></g><g fill="#ffffff" fill-opacity="1"><g transform="translate(108.619357, 79.254168)"><g><path d="M 24.871094 -15.898438 L 21.601562 -8.0625 L 20.15625 -12.054688 L 10.34375 -38.183594 L 1.636719 -38.183594 L 17 0 L 17.53125 1.40625 L 14.792969 7.835938 C 12.664062 12.777344 9.011719 16.503906 5.742188 18.179688 L 6.273438 18.976562 C 9.46875 17.113281 13.3125 13.464844 16.125 7.035156 L 19.128906 0 L 34.570312 -38.183594 L 33.621094 -38.183594 Z M 24.871094 -15.898438 "/></g></g></g><g fill="#ffffff" fill-opacity="1"><g transform="translate(144.861444, 79.254168)"><g><path d="M 12.855469 0 L 12.855469 -57.238281 L 5.171875 -57.238281 L 5.171875 0 Z M 12.855469 0 "/></g></g></g><g fill="#ffffff" fill-opacity="1"><g transform="translate(162.925443, 79.254168)"><g><path d="M 22.933594 -1.066406 C 13.578125 -1.066406 10.117188 -10.34375 10.117188 -20.5 C 10.117188 -21.03125 10.117188 -21.527344 10.15625 -22.058594 L 37.042969 -22.058594 C 37.042969 -31.640625 31.222656 -39.097656 21.03125 -39.097656 C 10.117188 -39.097656 2.28125 -30.652344 2.28125 -18.21875 C 2.28125 -6.996094 9.28125 0.914062 19.890625 0.914062 C 27.992188 0.914062 33.316406 -2.964844 36.625 -8.0625 L 35.976562 -8.519531 C 33.238281 -4.945312 29.550781 -1.066406 22.933594 -1.066406 Z M 20.613281 -38.109375 C 26.507812 -38.109375 29.324219 -32.023438 29.324219 -22.933594 L 10.191406 -22.933594 C 10.839844 -31.527344 14.757812 -38.109375 20.613281 -38.109375 Z M 20.613281 -38.109375 "/></g></g></g></svg>