<svg xmlns="http://www.w3.org/2000/svg" xmlns:xlink="http://www.w3.org/1999/xlink" width="272" zoomAndPan="magnify" viewBox="0 0 204 101.249998" height="135" preserveAspectRatio="xMidYMid meet" version="1.0"><defs><g/></defs><g fill="#ffffff" fill-opacity="1"><g transform="translate(43.372551, 82.672306)"><g><path d="M 19.484375 -2.984375 C 30.671875 -5.21875 37.875 -11.953125 35.953125 -21.515625 C 34.328125 -29.65625 26.578125 -33.0625 17.625 -35.53125 C 9.75 -37.671875 2.390625 -40.515625 1.328125 -45.84375 C 0.265625 -51.140625 4 -56.640625 10.078125 -57.859375 C 16.203125 -59.078125 21.421875 -58.375 26.953125 -55.875 L 27.34375 -56.703125 C 22.28125 -59.078125 16.390625 -60.015625 10.515625 -58.828125 C -0.375 -56.640625 -6.125 -49.8125 -4.46875 -41.578125 C -2.953125 -34.0625 5.75 -30.640625 14.125 -28.203125 C 21.5 -26.03125 28.828125 -23.375 30.0625 -17.21875 C 31.375 -10.703125 27.375 -5.453125 19.390625 -3.859375 C 12.90625 -2.5625 5.90625 -4.046875 0.859375 -6.109375 L 0.5625 -5.28125 C 5.515625 -3.34375 12.65625 -1.609375 19.484375 -2.984375 Z M 19.484375 -2.984375 "/></g></g></g><g fill="#eeba2b" fill-opacity="1"><g transform="translate(13.157582, 83.297373)"><g><path d="M 19.4375 -3.296875 C 30.578125 -5.71875 37.671875 -12.5625 35.59375 -22.09375 C 33.828125 -30.203125 26.03125 -33.484375 17.03125 -35.8125 C 9.125 -37.84375 1.734375 -40.546875 0.578125 -45.859375 C -0.578125 -51.140625 3.078125 -56.6875 9.140625 -58 C 15.234375 -59.328125 20.46875 -58.703125 26.046875 -56.3125 L 26.390625 -57.140625 C 21.3125 -59.4375 15.40625 -60.265625 9.546875 -59 C -1.3125 -56.625 -6.9375 -49.71875 -5.15625 -41.5 C -3.515625 -34 5.265625 -30.734375 13.671875 -28.4375 C 21.078125 -26.390625 28.4375 -23.859375 29.78125 -17.71875 C 31.1875 -11.21875 27.28125 -5.90625 19.328125 -4.171875 C 12.859375 -2.765625 5.828125 -4.15625 0.765625 -6.109375 L 0.484375 -5.296875 C 5.46875 -3.453125 12.625 -1.8125 19.4375 -3.296875 Z M 19.4375 -3.296875 "/></g></g></g><g fill="#ffffff" fill-opacity="1"><g transform="translate(75.842414, 79.254168)"><g><path d="M 16.015625 0.90625 C 21.1875 0.90625 25.09375 -1.671875 27.34375 -4.375 L 27 -4.796875 C 25.09375 -3.34375 23.28125 -2.015625 19.921875 -2.015625 C 16.390625 -2.015625 14.421875 -4.375 14.421875 -8.78125 L 14.421875 -37.3125 L 26.25 -37.3125 L 26.25 -38.1875 L 14.375 -38.1875 L 14.375 -46.8125 L 12.96875 -47.15625 L 6.65625 -38.1875 L 1.71875 -38.1875 L 1.71875 -37.3125 L 6.734375 -37.3125 L 6.734375 -9.046875 C 6.734375 -2.46875 10.578125 0.90625 16.015625 0.90625 Z M 16.015625 0.90625 "/></g></g></g><g fill="#ffffff" fill-opacity="1"><g transform="translate(104.896931, 79.254168)"><g><path d="M 24.875 -15.890625 L 21.609375 -8.0625 L 20.15625 -12.0625 L 10.34375 -38.1875 L 1.640625 -38.1875 L 17 0 L 17.53125 1.40625 L 14.796875 7.828125 C 12.671875 12.78125 9.015625 16.5 5.75 18.171875 L 6.28125 18.984375 C 9.46875 17.109375 13.3125 13.46875 16.125 7.03125 L 19.125 0 L 34.578125 -38.1875 L 33.625 -38.1875 Z M 24.875 -15.890625 "/></g></g></g><g fill="#ffffff" fill-opacity="1"><g transform="translate(141.139018, 79.254168)"><g><path d="M 12.859375 0 L 12.859375 -57.234375 L 5.171875 -57.234375 L 5.171875 0 Z M 12.859375 0 "/></g></g></g><g fill="#ffffff" fill-opacity="1"><g transform="translate(159.203017, 79.254168)"><g><path d="M 22.9375 -1.0625 C 13.578125 -1.0625 10.109375 -10.34375 10.109375 -20.5 C 10.109375 -21.03125 10.109375 -21.53125 10.15625 -22.0625 L 37.046875 -22.0625 C 37.046875 -31.640625 31.21875 -39.09375 21.03125 -39.09375 C 10.109375 -39.09375 2.28125 -30.65625 2.28125 -18.21875 C 2.28125 -7 9.28125 0.90625 19.890625 0.90625 C 27.984375 0.90625 33.3125 -2.96875 36.625 -8.0625 L 35.984375 -8.515625 C 33.234375 -4.9375 29.546875 -1.0625 22.9375 -1.0625 Z M 20.609375 -38.109375 C 26.515625 -38.109375 29.328125 -32.015625 29.328125 -22.9375 L 10.1875 -22.9375 C 10.84375 -31.53125 14.75 -38.109375 20.609375 -38.109375 Z M 20.609375 -38.109375 "/></g></g></g></svg>