<svg xmlns="http://www.w3.org/2000/svg" xmlns:xlink="http://www.w3.org/1999/xlink" width="198" zoomAndPan="magnify" viewBox="0 0 148.5 93.749997" height="125" preserveAspectRatio="xMidYMid meet" version="1.0"><defs><g/><clipPath id="3c7020fdea"><path d="M 0 0.03125 L 148 0.03125 L 148 93.46875 L 0 93.46875 Z M 0 0.03125 " clip-rule="nonzero"/></clipPath><clipPath id="cd6dd25080"><path d="M 9.566406 18.316406 L 144.113281 18.316406 L 144.113281 78.113281 L 9.566406 78.113281 Z M 9.566406 18.316406 " clip-rule="nonzero"/></clipPath><clipPath id="c06b0168b8"><path d="M 18.535156 18.316406 L 135.144531 18.316406 C 137.523438 18.316406 139.804688 19.261719 141.488281 20.945312 C 143.167969 22.625 144.113281 24.90625 144.113281 27.285156 L 144.113281 69.144531 C 144.113281 74.097656 140.097656 78.113281 135.144531 78.113281 L 18.535156 78.113281 C 16.15625 78.113281 13.875 77.171875 12.195312 75.488281 C 10.511719 73.804688 9.566406 71.523438 9.566406 69.144531 L 9.566406 27.285156 C 9.566406 22.332031 13.582031 18.316406 18.535156 18.316406 Z M 18.535156 18.316406 " clip-rule="nonzero"/></clipPath></defs><g clip-path="url(#3c7020fdea)"><path fill="#ffffff" d="M 0 0.03125 L 148 0.03125 L 148 93.46875 L 0 93.46875 Z M 0 0.03125 " fill-opacity="1" fill-rule="nonzero"/></g><g clip-path="url(#cd6dd25080)"><g clip-path="url(#c06b0168b8)"><path fill="#545454" d="M 9.566406 18.316406 L 144.113281 18.316406 L 144.113281 78.113281 L 9.566406 78.113281 Z M 9.566406 18.316406 " fill-opacity="1" fill-rule="nonzero"/></g></g><g fill="#ffffff" fill-opacity="1"><g transform="translate(44.502027, 64.679149)"><g><path d="M 10.976562 -1.675781 C 17.273438 -2.9375 21.316406 -6.71875 20.238281 -12.113281 C 19.320312 -16.691406 14.960938 -18.613281 9.921875 -20.003906 C 5.484375 -21.210938 1.34375 -22.804688 0.742188 -25.804688 C 0.144531 -28.789062 2.257812 -31.875 5.679688 -32.558594 C 9.121094 -33.25 12.058594 -32.855469 15.179688 -31.453125 L 15.390625 -31.929688 C 12.546875 -33.261719 9.234375 -33.777344 5.917969 -33.109375 C -0.210938 -31.882812 -3.441406 -28.046875 -2.507812 -23.40625 C -1.660156 -19.167969 3.246094 -17.246094 7.953125 -15.875 C 12.105469 -14.65625 16.226562 -13.167969 16.921875 -9.703125 C 17.65625 -6.03125 15.414062 -3.070312 10.921875 -2.167969 C 7.265625 -1.433594 3.320312 -2.28125 0.488281 -3.4375 L 0.320312 -2.96875 C 3.113281 -1.890625 7.132812 -0.90625 10.976562 -1.675781 Z M 10.976562 -1.675781 "/></g></g></g><g fill="#ffffff" fill-opacity="1"><g transform="translate(27.492641, 65.030971)"><g><path d="M 10.945312 -1.855469 C 17.222656 -3.222656 21.207031 -7.066406 20.035156 -12.445312 C 19.042969 -17.003906 14.652344 -18.855469 9.59375 -20.164062 C 5.136719 -21.296875 0.972656 -22.824219 0.320312 -25.816406 C -0.324219 -28.785156 1.734375 -31.90625 5.144531 -32.648438 C 8.574219 -33.394531 11.519531 -33.050781 14.664062 -31.695312 L 14.867188 -32.179688 C 12 -33.460938 8.679688 -33.921875 5.375 -33.203125 C -0.734375 -31.875 -3.898438 -27.988281 -2.890625 -23.363281 C -1.972656 -19.136719 2.964844 -17.296875 7.691406 -16.003906 C 11.863281 -14.851562 16.007812 -13.429688 16.757812 -9.980469 C 17.554688 -6.316406 15.359375 -3.320312 10.882812 -2.347656 C 7.242188 -1.554688 3.28125 -2.335938 0.433594 -3.445312 L 0.273438 -2.972656 C 3.082031 -1.941406 7.117188 -1.023438 10.945312 -1.855469 Z M 10.945312 -1.855469 "/></g></g></g><g fill="#ffffff" fill-opacity="1"><g transform="translate(62.781171, 62.755672)"><g><path d="M 9.011719 0.515625 C 11.925781 0.515625 14.128906 -0.941406 15.394531 -2.460938 L 15.199219 -2.699219 C 14.128906 -1.882812 13.101562 -1.132812 11.21875 -1.132812 C 9.226562 -1.132812 8.113281 -2.460938 8.113281 -4.945312 L 8.113281 -21.003906 L 14.773438 -21.003906 L 14.773438 -21.496094 L 8.09375 -21.496094 L 8.09375 -26.355469 L 7.300781 -26.546875 L 3.746094 -21.496094 L 0.964844 -21.496094 L 0.964844 -21.003906 L 3.789062 -21.003906 L 3.789062 -5.09375 C 3.789062 -1.390625 5.953125 0.515625 9.011719 0.515625 Z M 9.011719 0.515625 "/></g></g></g><g fill="#ffffff" fill-opacity="1"><g transform="translate(79.137248, 62.755672)"><g><path d="M 14.003906 -8.949219 L 12.160156 -4.539062 L 11.347656 -6.785156 L 5.824219 -21.496094 L 0.921875 -21.496094 L 9.570312 0 L 9.871094 0.792969 L 8.328125 4.410156 C 7.128906 7.195312 5.074219 9.292969 3.234375 10.234375 L 3.53125 10.683594 C 5.332031 9.632812 7.492188 7.578125 9.078125 3.960938 L 10.769531 0 L 19.460938 -21.496094 L 18.925781 -21.496094 Z M 14.003906 -8.949219 "/></g></g></g><g fill="#ffffff" fill-opacity="1"><g transform="translate(99.539526, 62.755672)"><g><path d="M 7.238281 0 L 7.238281 -32.222656 L 2.910156 -32.222656 L 2.910156 0 Z M 7.238281 0 "/></g></g></g><g fill="#ffffff" fill-opacity="1"><g transform="translate(109.708553, 62.755672)"><g><path d="M 12.910156 -0.597656 C 7.644531 -0.597656 5.695312 -5.824219 5.695312 -11.539062 C 5.695312 -11.839844 5.695312 -12.117188 5.714844 -12.417969 L 20.851562 -12.417969 C 20.851562 -17.8125 17.578125 -22.007812 11.839844 -22.007812 C 5.695312 -22.007812 1.285156 -17.257812 1.285156 -10.253906 C 1.285156 -3.9375 5.222656 0.515625 11.199219 0.515625 C 15.757812 0.515625 18.753906 -1.671875 20.617188 -4.539062 L 20.253906 -4.796875 C 18.710938 -2.785156 16.636719 -0.597656 12.910156 -0.597656 Z M 11.605469 -21.453125 C 14.921875 -21.453125 16.507812 -18.027344 16.507812 -12.910156 L 5.738281 -12.910156 C 6.101562 -17.75 8.308594 -21.453125 11.605469 -21.453125 Z M 11.605469 -21.453125 "/></g></g></g></svg>